<!-- Generated by IcoMoon.io -->
<svg version="1.1" xmlns="http://www.w3.org/2000/svg" width="30" height="28" viewBox="0 0 30 28">
<title>code</title>
<path d="M9.641 21.859l-0.781 0.781c-0.203 0.203-0.516 0.203-0.719 0l-7.281-7.281c-0.203-0.203-0.203-0.516 0-0.719l7.281-7.281c0.203-0.203 0.516-0.203 0.719 0l0.781 0.781c0.203 0.203 0.203 0.516 0 0.719l-6.141 6.141 6.141 6.141c0.203 0.203 0.203 0.516 0 0.719zM18.875 5.187l-5.828 20.172c-0.078 0.266-0.359 0.422-0.609 0.344l-0.969-0.266c-0.266-0.078-0.422-0.359-0.344-0.625l5.828-20.172c0.078-0.266 0.359-0.422 0.609-0.344l0.969 0.266c0.266 0.078 0.422 0.359 0.344 0.625zM29.141 15.359l-7.281 7.281c-0.203 0.203-0.516 0.203-0.719 0l-0.781-0.781c-0.203-0.203-0.203-0.516 0-0.719l6.141-6.141-6.141-6.141c-0.203-0.203-0.203-0.516 0-0.719l0.781-0.781c0.203-0.203 0.516-0.203 0.719 0l7.281 7.281c0.203 0.203 0.203 0.516 0 0.719z"></path>
</svg>
